<svg id="Capa_1" enable-background="new 0 0 512 512" height="512" viewBox="0 0 512 512" width="512" xmlns="http://www.w3.org/2000/svg"><path d="m484.333 256c0-19.732-2.515-39.248-7.485-58.162l28.9-21.26-56.093-97.155-32.912 14.42c-28.139-27.938-62.595-47.847-100.689-58.18l-3.962-35.663h-56.092l-21.333 256 21.333 256h56.092l3.962-35.663c38.095-10.333 72.551-30.242 100.689-58.18l32.912 14.42 56.093-97.155-28.9-21.26c4.971-18.914 7.485-38.43 7.485-58.162z" fill="#babac0"/><path d="m199.908 0-3.962 35.662c-38.095 10.333-72.551 30.242-100.689 58.18l-32.912-14.42-56.094 97.155 28.9 21.26c-4.971 18.914-7.485 38.431-7.485 58.162s2.515 39.248 7.485 58.162l-28.9 21.26 56.093 97.155 32.912-14.42c28.139 27.938 62.595 47.847 100.689 58.18l3.963 35.664h56.092v-512z" fill="#d8d8d8"/><path d="m256 85.333-22.755 170.667 22.755 170.667c94.257 0 170.667-76.41 170.667-170.667s-76.41-170.667-170.667-170.667z" fill="#ececf1"/><path d="m85.333 256c0 94.257 76.41 170.667 170.667 170.667v-341.334c-94.257 0-170.667 76.41-170.667 170.667z" fill="#fff"/><path d="m176.171 311.551-56.018-54.862 54.861-56.019 21.434 20.99-33.871 34.586 34.585 33.872z" fill="#12b0ff"/><path d="m335.829 311.552-20.991-21.434 34.586-33.872-33.872-34.586 21.434-20.99 54.862 56.019z" fill="#0093fd"/><path d="m292.012 157.757-29.357-6.181-6.655 31.61-10.667 104.814 10.667 40.813z" fill="#fc3636"/><path d="m249.345 360.423 6.655-31.61v-145.627l-36.012 171.057z" fill="#fc5b3f"/></svg>