<?xml version="1.0"?>
<svg xmlns="http://www.w3.org/2000/svg" xmlns:xlink="http://www.w3.org/1999/xlink" version="1.1" id="Capa_1" x="0px" y="0px" viewBox="0 0 512 512" style="enable-background:new 0 0 512 512;" xml:space="preserve" width="512px" height="512px"><g><polygon style="fill:#FFD9A7;" points="426.783,272.589 426.783,466.989 289.788,466.989 289.788,356.194 222.212,356.194   222.212,466.989 85.216,466.989 85.216,272.589 100.233,272.589 100.233,167.48 411.766,167.48 411.766,272.589 " data-original="#FFD9A7"/><polygon style="fill:#E70C6A;" points="512,239.732 450.2,320.974 256,173.256 61.8,320.974 0,239.732 256,45.011 325.559,97.921   325.559,69.869 426.783,69.869 426.783,174.918 " data-original="#E70C6A"/><polygon style="fill:#FFC273;" points="426.783,272.589 426.783,466.989 289.788,466.989 289.788,356.194 256,356.194 256,167.48   411.766,167.48 411.766,272.589 " data-original="#FFC273"/><polygon style="fill:#B40754" points="512,239.732 450.2,320.974 256,173.256 256,45.011 325.559,97.921 325.559,69.869   426.783,69.869 426.783,174.918 " data-original="#B40754" class="active-path" data-old_color="#B40754"/></g> </svg>
