<svg xmlns="http://www.w3.org/2000/svg" viewBox="0 0 512 512"><path fill="#00c1fd" d="M256 512A254 254 0 010 256 254 254 0 01256 0a254 254 0 01256 256 254 254 0 01-256 256z" data-original="#00C1FD"/><path fill="#08a8ee" d="M437 75C389 27 324 0 256 0v512a254 254 0 00256-256c0-68-27-133-75-181z" data-original="#08A8EE"/><g fill="#e4f7ff"><path d="M301 371V221H191v30h20v120h-21v30h130v-30zM256 191a45 45 0 100-90 45 45 0 000 90z" data-original="#E4F7FF"/></g><path fill="#cbedfd" d="M256 191a45 45 0 000-90v90zM301 371V221h-45v180h64v-30z" class="active-path" data-old_color="#CBEDFD" data-original="#CBEDFD"/></svg>